<svg id="Capa_1" enable-background="new 0 0 512 512" height="512" viewBox="0 0 512 512" width="512" xmlns="http://www.w3.org/2000/svg"><g><path d="m478.316 230.16v205.176h-444.631v-205.176" fill="#fefaf4"/><path d="m448.316 230.16h30v205.176h-30z" fill="#e7e7e7"/><path d="m450.135 46.364h-383.515c-9.788 0-18.29 6.736-20.528 16.265l-32.508 138.431c-3.108 13.234 6.934 25.906 20.528 25.906h443.777c13.594 0 23.635-12.673 20.528-25.906l-33.595-143.059c-1.601-6.818-7.684-11.637-14.687-11.637z" fill="#f7b565"/><path d="m498.417 201.06-33.595-143.059c-1.601-6.818-7.684-11.637-14.686-11.637h-15.115l31.396 133.696c3.108 13.233-6.934 25.906-20.527 25.906h-432.874c.023 11.294 9.199 21 21.095 21h443.778c13.593 0 23.635-12.673 20.528-25.906z" fill="#e6a85e"/><path d="m301.067 419.748h-90.795v-93.351c0-25.072 20.325-45.397 45.398-45.397 25.072 0 45.397 20.325 45.397 45.397z" fill="#d88a55"/><path d="m255.67 281c-5.258 0-10.303.904-15 2.549 17.699 6.196 30.398 23.035 30.398 42.849v93.35h30v-93.35c-.001-25.073-20.326-45.398-45.398-45.398z" fill="#c27842"/><path d="m494.707 465.636h-477.413c-5.409 0-9.794-4.385-9.794-9.794v-22.187c0-7.681 6.227-13.907 13.907-13.907h469.186c7.681 0 13.907 6.226 13.907 13.907v22.187c0 5.41-4.384 9.794-9.793 9.794z" fill="#f7b565"/><path d="m490.593 419.748h-30c7.681 0 13.907 6.227 13.907 13.907v31.981h20.206c5.409 0 9.794-4.385 9.794-9.794v-22.187c0-7.681-6.226-13.907-13.907-13.907z" fill="#e6a85e"/><path d="m133.072 342.883h-52.291v-43.771c0-14.44 11.706-26.146 26.146-26.146 14.44 0 26.146 11.706 26.146 26.146v43.771z" fill="#b9d4e2"/><path d="m139.397 371.801h-67.163c-3.049 0-5.521-2.472-5.521-5.521v-17.876c0-3.049 2.472-5.521 5.521-5.521h67.163c3.049 0 5.521 2.472 5.521 5.521v17.876c0 3.049-2.472 5.521-5.521 5.521z" fill="#e4d7bc"/><path d="m435.47 342.883h-52.292v-43.771c0-14.44 11.706-26.146 26.146-26.146 14.44 0 26.146 11.706 26.146 26.146z" fill="#b9d4e2"/><path d="m441.795 371.801h-67.163c-3.049 0-5.521-2.472-5.521-5.521v-17.876c0-3.049 2.472-5.521 5.521-5.521h67.163c3.049 0 5.521 2.472 5.521 5.521v17.876c0 3.049-2.472 5.521-5.521 5.521z" fill="#e4d7bc"/><g><circle cx="275.335" cy="362.842" r="7.5"/><path d="m490.593 412.248h-4.776v-178.891c5.658-1.622 10.713-4.973 14.478-9.723 5.455-6.884 7.433-15.737 5.425-24.289l-33.597-143.059c-2.408-10.258-11.45-17.422-21.988-17.422h-289.772c-4.143 0-7.5 3.358-7.5 7.5s3.357 7.5 7.5 7.5h289.771c3.539 0 6.576 2.406 7.385 5.852l4.054 17.262h-80.86c-4.143 0-7.5 3.358-7.5 7.5s3.357 7.5 7.5 7.5h84.383l7.417 31.583h-122.477c-4.143 0-7.5 3.358-7.5 7.5s3.357 7.5 7.5 7.5h125.999l8.243 35.1h-165.548c-4.143 0-7.5 3.358-7.5 7.5s3.357 7.5 7.5 7.5h169.07l3.314 14.113c.955 4.064.015 8.272-2.578 11.544s-6.474 5.148-10.648 5.148h-443.777c-4.175 0-8.056-1.876-10.648-5.148s-3.532-7.48-2.577-11.545l3.332-14.188c.33.044.664.075 1.006.075h169.296c4.143 0 7.5-3.358 7.5-7.5s-3.357-7.5-7.5-7.5h-166.798l8.242-35.1h127.249c4.143 0 7.5-3.358 7.5-7.5s-3.357-7.5-7.5-7.5h-123.726l7.417-31.583h85.633c4.143 0 7.5-3.358 7.5-7.5s-3.357-7.5-7.5-7.5h-82.111l2.967-12.633c1.45-6.171 6.889-10.48 13.227-10.48h63.744c4.143 0 7.5-3.358 7.5-7.5s-3.357-7.5-7.5-7.5h-63.745c-13.336 0-24.779 9.067-27.829 22.05l-32.508 138.431c-2.008 8.551-.03 17.404 5.425 24.289 3.764 4.75 8.82 8.101 14.478 9.723v58.668c0 4.142 3.357 7.5 7.5 7.5s7.5-3.358 7.5-7.5v-57.558h128.788v177.782h-128.788v-90.224c0-4.142-3.357-7.5-7.5-7.5s-7.5 3.358-7.5 7.5v90.224h-4.777c-11.804-.001-21.408 9.602-21.408 21.406v22.188c0 9.536 7.758 17.293 17.294 17.293h378.349c4.143 0 7.5-3.358 7.5-7.5s-3.357-7.5-7.5-7.5h-378.349c-1.265 0-2.294-1.029-2.294-2.293v-22.188c0-3.533 2.874-6.407 6.407-6.407h469.186c3.533 0 6.407 2.874 6.407 6.407v22.188c0 1.265-1.029 2.293-2.294 2.293h-69.063c-4.143 0-7.5 3.358-7.5 7.5s3.357 7.5 7.5 7.5h69.063c9.536 0 17.294-7.758 17.294-17.293v-22.188c0-11.804-9.603-21.407-21.407-21.407zm-19.777 0h-126.464v-177.782h126.465v177.782zm-285.843-177.782h144.379v177.782h-20.784v-85.85c0-29.168-23.73-52.897-52.898-52.897s-52.897 23.729-52.897 52.897v85.85h-17.8zm108.594 177.782h-75.795v-85.85c0-20.897 17.001-37.897 37.897-37.897s37.898 17 37.898 37.897z"/><path d="m106.927 265.465c-18.553 0-33.647 15.094-33.647 33.646v36.272h-1.046c-7.18 0-13.021 5.841-13.021 13.021v17.876c0 7.18 5.842 13.021 13.021 13.021h67.163c7.18 0 13.02-5.841 13.02-13.021v-17.876c0-6.783-5.215-12.365-11.846-12.961v-36.331c.001-18.553-15.092-33.647-33.644-33.647zm0 15c10.281 0 18.646 8.365 18.646 18.646v4.494h-37.293v-4.494c0-10.281 8.366-18.646 18.647-18.646zm-18.647 38.14h37.292v16.778h-37.292zm49.138 45.696h-63.205v-13.918h63.205z"/><path d="m374.632 379.301h67.163c7.18 0 13.022-5.841 13.022-13.021v-17.876c0-6.783-5.216-12.364-11.846-12.961v-36.331c0-18.552-15.094-33.646-33.647-33.646-18.552 0-33.645 15.094-33.645 33.646v36.272h-1.047c-7.18 0-13.021 5.841-13.021 13.021v17.876c0 7.179 5.841 13.02 13.021 13.02zm65.184-15h-63.205v-13.918h63.205zm-30.492-83.836c10.281 0 18.647 8.365 18.647 18.646v4.494h-37.292v-4.494c0-10.281 8.364-18.646 18.645-18.646zm-18.645 38.14h37.292v16.778h-37.292z"/></g></g></svg>